# xmcd CD database file generated by Grip 3.0.0
# 
# Track frame offsets:
#       150
#       22845
#       41927
#       61542
#       84682
#       116812
#       146582
#       173255
#       207795
#       229962
#       248815
#       271240
#       294370
#       327150
# 
# Disc length: 4663 seconds
# 
# Revision: 2
# Processed by: cddbd v1.4PL0 Copyright (c) Steve Scherf et al.
# Submitted via: Grip 3.0.0
# 
DISCID=bc12350e
DTITLE=Eagles - The Eagle Has Landed Vol. II
DYEAR=1994
DGENRE=Rock
TTITLE0=New Kid In Town
TTITLE1=Victim Of Love
TTITLE2=Ordinary Average Guy
TTITLE3=The Boys Of Summer
TTITLE4=You Belong To The City
TTITLE5=Lyin' Eyes
TTITLE6=Dirty Laundry
TTITLE7=Life's Been Good
TTITLE8=All She Wants To Do Is Dance
TTITLE9=One Of These Nights
TTITLE10=Smuggler's Blues
TTITLE11=Heartache Tonight
TTITLE12=Rocky Mountain Way
TTITLE13=Already Gone
EXTD=
EXTT0=
EXTT1=
EXTT2=
EXTT3=
EXTT4=
EXTT5=
EXTT6=
EXTT7=
EXTT8=
EXTT9=
EXTT10=
EXTT11=
EXTT12=
EXTT13=
PLAYORDER=
